<mxfile host="app.diagrams.net" agent="Mozilla/5.0 (Windows NT 10.0; Win64; x64) AppleWebKit/537.36 (KHTML, like Gecko) Chrome/131.0.0.0 Safari/537.36" version="25.0.3">
  <diagram name="หน้า-1" id="G43pXJkuxhWv-bWYdAQc">
    <mxGraphModel dx="2585" dy="1115" grid="1" gridSize="10" guides="1" tooltips="1" connect="1" arrows="1" fold="1" page="1" pageScale="1" pageWidth="827" pageHeight="1169" math="0" shadow="0">
      <root>
        <mxCell id="0" />
        <mxCell id="1" parent="0" />
        <mxCell id="Fj_LGXwjLdzTl21RgVkY-3" value="" style="edgeStyle=orthogonalEdgeStyle;rounded=0;orthogonalLoop=1;jettySize=auto;html=1;" edge="1" parent="1" source="Fj_LGXwjLdzTl21RgVkY-1" target="Fj_LGXwjLdzTl21RgVkY-2">
          <mxGeometry relative="1" as="geometry" />
        </mxCell>
        <mxCell id="Fj_LGXwjLdzTl21RgVkY-1" value="start" style="strokeWidth=2;html=1;shape=mxgraph.flowchart.start_1;whiteSpace=wrap;" vertex="1" parent="1">
          <mxGeometry x="360" y="100" width="100" height="60" as="geometry" />
        </mxCell>
        <mxCell id="Fj_LGXwjLdzTl21RgVkY-5" value="" style="edgeStyle=orthogonalEdgeStyle;rounded=0;orthogonalLoop=1;jettySize=auto;html=1;" edge="1" parent="1" source="Fj_LGXwjLdzTl21RgVkY-2" target="Fj_LGXwjLdzTl21RgVkY-4">
          <mxGeometry relative="1" as="geometry" />
        </mxCell>
        <mxCell id="Fj_LGXwjLdzTl21RgVkY-2" value="สร้างตัวแปร int score&amp;nbsp;" style="whiteSpace=wrap;html=1;strokeWidth=2;" vertex="1" parent="1">
          <mxGeometry x="350" y="240" width="120" height="60" as="geometry" />
        </mxCell>
        <mxCell id="Fj_LGXwjLdzTl21RgVkY-7" value="" style="edgeStyle=orthogonalEdgeStyle;rounded=0;orthogonalLoop=1;jettySize=auto;html=1;" edge="1" parent="1" source="Fj_LGXwjLdzTl21RgVkY-4" target="Fj_LGXwjLdzTl21RgVkY-6">
          <mxGeometry relative="1" as="geometry" />
        </mxCell>
        <mxCell id="Fj_LGXwjLdzTl21RgVkY-4" value="แสดงคำว่า enter score :" style="shape=parallelogram;perimeter=parallelogramPerimeter;whiteSpace=wrap;html=1;fixedSize=1;strokeWidth=2;" vertex="1" parent="1">
          <mxGeometry x="315" y="380" width="190" height="60" as="geometry" />
        </mxCell>
        <mxCell id="Fj_LGXwjLdzTl21RgVkY-9" value="" style="edgeStyle=orthogonalEdgeStyle;rounded=0;orthogonalLoop=1;jettySize=auto;html=1;" edge="1" parent="1" source="Fj_LGXwjLdzTl21RgVkY-6" target="Fj_LGXwjLdzTl21RgVkY-8">
          <mxGeometry relative="1" as="geometry" />
        </mxCell>
        <mxCell id="Fj_LGXwjLdzTl21RgVkY-6" value="รับค่าจากผู้ใช้" style="shape=parallelogram;perimeter=parallelogramPerimeter;whiteSpace=wrap;html=1;fixedSize=1;strokeWidth=2;" vertex="1" parent="1">
          <mxGeometry x="350" y="520" width="120" height="60" as="geometry" />
        </mxCell>
        <mxCell id="Fj_LGXwjLdzTl21RgVkY-11" value="" style="edgeStyle=orthogonalEdgeStyle;rounded=0;orthogonalLoop=1;jettySize=auto;html=1;" edge="1" parent="1" source="Fj_LGXwjLdzTl21RgVkY-8" target="Fj_LGXwjLdzTl21RgVkY-10">
          <mxGeometry relative="1" as="geometry" />
        </mxCell>
        <mxCell id="Fj_LGXwjLdzTl21RgVkY-8" value="int i = 0" style="whiteSpace=wrap;html=1;strokeWidth=2;" vertex="1" parent="1">
          <mxGeometry x="350" y="660" width="120" height="60" as="geometry" />
        </mxCell>
        <mxCell id="Fj_LGXwjLdzTl21RgVkY-15" value="" style="edgeStyle=orthogonalEdgeStyle;rounded=0;orthogonalLoop=1;jettySize=auto;html=1;" edge="1" parent="1" source="Fj_LGXwjLdzTl21RgVkY-10" target="Fj_LGXwjLdzTl21RgVkY-14">
          <mxGeometry relative="1" as="geometry" />
        </mxCell>
        <mxCell id="Fj_LGXwjLdzTl21RgVkY-10" value="i &amp;lt; 8" style="rhombus;whiteSpace=wrap;html=1;strokeWidth=2;" vertex="1" parent="1">
          <mxGeometry x="370" y="790" width="80" height="80" as="geometry" />
        </mxCell>
        <mxCell id="Fj_LGXwjLdzTl21RgVkY-17" value="" style="edgeStyle=orthogonalEdgeStyle;rounded=0;orthogonalLoop=1;jettySize=auto;html=1;" edge="1" parent="1" source="Fj_LGXwjLdzTl21RgVkY-14" target="Fj_LGXwjLdzTl21RgVkY-16">
          <mxGeometry relative="1" as="geometry" />
        </mxCell>
        <mxCell id="Fj_LGXwjLdzTl21RgVkY-20" value="" style="edgeStyle=orthogonalEdgeStyle;rounded=0;orthogonalLoop=1;jettySize=auto;html=1;" edge="1" parent="1" source="Fj_LGXwjLdzTl21RgVkY-14" target="Fj_LGXwjLdzTl21RgVkY-19">
          <mxGeometry relative="1" as="geometry" />
        </mxCell>
        <mxCell id="Fj_LGXwjLdzTl21RgVkY-14" value="i == 0 &amp;amp;&amp;amp; score &amp;gt; 80" style="rhombus;whiteSpace=wrap;html=1;strokeWidth=2;" vertex="1" parent="1">
          <mxGeometry x="295" y="950" width="230" height="130" as="geometry" />
        </mxCell>
        <mxCell id="Fj_LGXwjLdzTl21RgVkY-25" value="" style="edgeStyle=orthogonalEdgeStyle;rounded=0;orthogonalLoop=1;jettySize=auto;html=1;" edge="1" parent="1" source="Fj_LGXwjLdzTl21RgVkY-16" target="Fj_LGXwjLdzTl21RgVkY-24">
          <mxGeometry relative="1" as="geometry" />
        </mxCell>
        <mxCell id="Fj_LGXwjLdzTl21RgVkY-28" value="" style="edgeStyle=orthogonalEdgeStyle;rounded=0;orthogonalLoop=1;jettySize=auto;html=1;" edge="1" parent="1" source="Fj_LGXwjLdzTl21RgVkY-16" target="Fj_LGXwjLdzTl21RgVkY-27">
          <mxGeometry relative="1" as="geometry" />
        </mxCell>
        <mxCell id="Fj_LGXwjLdzTl21RgVkY-16" value="i == 1 &amp;amp;&amp;amp; score &amp;gt;= 75 &amp;amp;&amp;amp; score &amp;lt; 80" style="rhombus;whiteSpace=wrap;html=1;strokeWidth=2;" vertex="1" parent="1">
          <mxGeometry x="265" y="1185" width="290" height="145" as="geometry" />
        </mxCell>
        <mxCell id="Fj_LGXwjLdzTl21RgVkY-18" value="F" style="text;html=1;align=center;verticalAlign=middle;resizable=0;points=[];autosize=1;strokeColor=none;fillColor=none;" vertex="1" parent="1">
          <mxGeometry x="365" y="1078" width="30" height="30" as="geometry" />
        </mxCell>
        <mxCell id="Fj_LGXwjLdzTl21RgVkY-19" value="แสดง A !" style="shape=parallelogram;perimeter=parallelogramPerimeter;whiteSpace=wrap;html=1;fixedSize=1;strokeWidth=2;" vertex="1" parent="1">
          <mxGeometry x="660" y="985" width="120" height="60" as="geometry" />
        </mxCell>
        <mxCell id="Fj_LGXwjLdzTl21RgVkY-21" value="T" style="text;html=1;align=center;verticalAlign=middle;resizable=0;points=[];autosize=1;strokeColor=none;fillColor=none;" vertex="1" parent="1">
          <mxGeometry x="525" y="958" width="30" height="30" as="geometry" />
        </mxCell>
        <mxCell id="Fj_LGXwjLdzTl21RgVkY-24" value="แสดง B+ !" style="shape=parallelogram;perimeter=parallelogramPerimeter;whiteSpace=wrap;html=1;fixedSize=1;strokeWidth=2;" vertex="1" parent="1">
          <mxGeometry x="720" y="1227.5" width="120" height="60" as="geometry" />
        </mxCell>
        <mxCell id="Fj_LGXwjLdzTl21RgVkY-26" value="T" style="text;html=1;align=center;verticalAlign=middle;resizable=0;points=[];autosize=1;strokeColor=none;fillColor=none;" vertex="1" parent="1">
          <mxGeometry x="545" y="1208" width="30" height="30" as="geometry" />
        </mxCell>
        <mxCell id="Fj_LGXwjLdzTl21RgVkY-31" value="" style="edgeStyle=orthogonalEdgeStyle;rounded=0;orthogonalLoop=1;jettySize=auto;html=1;" edge="1" parent="1" source="Fj_LGXwjLdzTl21RgVkY-27" target="Fj_LGXwjLdzTl21RgVkY-30">
          <mxGeometry relative="1" as="geometry" />
        </mxCell>
        <mxCell id="Fj_LGXwjLdzTl21RgVkY-33" value="" style="edgeStyle=orthogonalEdgeStyle;rounded=0;orthogonalLoop=1;jettySize=auto;html=1;" edge="1" parent="1" source="Fj_LGXwjLdzTl21RgVkY-27" target="Fj_LGXwjLdzTl21RgVkY-32">
          <mxGeometry relative="1" as="geometry" />
        </mxCell>
        <mxCell id="Fj_LGXwjLdzTl21RgVkY-27" value="i == 2 &amp;amp;&amp;amp; score &amp;gt;= 70 &amp;amp;&amp;amp; score &amp;lt; 75" style="rhombus;whiteSpace=wrap;html=1;strokeWidth=2;" vertex="1" parent="1">
          <mxGeometry x="265" y="1430" width="290" height="145" as="geometry" />
        </mxCell>
        <mxCell id="Fj_LGXwjLdzTl21RgVkY-29" value="F" style="text;html=1;align=center;verticalAlign=middle;resizable=0;points=[];autosize=1;strokeColor=none;fillColor=none;" vertex="1" parent="1">
          <mxGeometry x="365" y="1350" width="30" height="30" as="geometry" />
        </mxCell>
        <mxCell id="Fj_LGXwjLdzTl21RgVkY-30" value="แสดง B !" style="shape=parallelogram;perimeter=parallelogramPerimeter;whiteSpace=wrap;html=1;fixedSize=1;strokeWidth=2;" vertex="1" parent="1">
          <mxGeometry x="720" y="1472.5" width="120" height="60" as="geometry" />
        </mxCell>
        <mxCell id="Fj_LGXwjLdzTl21RgVkY-35" value="" style="edgeStyle=orthogonalEdgeStyle;rounded=0;orthogonalLoop=1;jettySize=auto;html=1;" edge="1" parent="1" source="Fj_LGXwjLdzTl21RgVkY-32" target="Fj_LGXwjLdzTl21RgVkY-34">
          <mxGeometry relative="1" as="geometry" />
        </mxCell>
        <mxCell id="Fj_LGXwjLdzTl21RgVkY-37" value="" style="edgeStyle=orthogonalEdgeStyle;rounded=0;orthogonalLoop=1;jettySize=auto;html=1;" edge="1" parent="1" source="Fj_LGXwjLdzTl21RgVkY-32" target="Fj_LGXwjLdzTl21RgVkY-36">
          <mxGeometry relative="1" as="geometry" />
        </mxCell>
        <mxCell id="Fj_LGXwjLdzTl21RgVkY-32" value="i == 3 &amp;amp;&amp;amp; score &amp;gt;= 65 &amp;amp;&amp;amp; score &amp;lt; 70" style="rhombus;whiteSpace=wrap;html=1;strokeWidth=2;" vertex="1" parent="1">
          <mxGeometry x="265" y="1660" width="290" height="145" as="geometry" />
        </mxCell>
        <mxCell id="Fj_LGXwjLdzTl21RgVkY-34" value="แสดง C+ !" style="shape=parallelogram;perimeter=parallelogramPerimeter;whiteSpace=wrap;html=1;fixedSize=1;strokeWidth=2;" vertex="1" parent="1">
          <mxGeometry x="720" y="1702.5" width="120" height="60" as="geometry" />
        </mxCell>
        <mxCell id="Fj_LGXwjLdzTl21RgVkY-39" value="" style="edgeStyle=orthogonalEdgeStyle;rounded=0;orthogonalLoop=1;jettySize=auto;html=1;" edge="1" parent="1" source="Fj_LGXwjLdzTl21RgVkY-36" target="Fj_LGXwjLdzTl21RgVkY-38">
          <mxGeometry relative="1" as="geometry" />
        </mxCell>
        <mxCell id="Fj_LGXwjLdzTl21RgVkY-41" value="" style="edgeStyle=orthogonalEdgeStyle;rounded=0;orthogonalLoop=1;jettySize=auto;html=1;" edge="1" parent="1" source="Fj_LGXwjLdzTl21RgVkY-36" target="Fj_LGXwjLdzTl21RgVkY-40">
          <mxGeometry relative="1" as="geometry" />
        </mxCell>
        <mxCell id="Fj_LGXwjLdzTl21RgVkY-36" value="i == 4 &amp;amp;&amp;amp; score &amp;gt;= 60 &amp;amp;&amp;amp; score &amp;lt; 65" style="rhombus;whiteSpace=wrap;html=1;strokeWidth=2;" vertex="1" parent="1">
          <mxGeometry x="265" y="1890" width="290" height="145" as="geometry" />
        </mxCell>
        <mxCell id="Fj_LGXwjLdzTl21RgVkY-38" value="แสดง C !" style="shape=parallelogram;perimeter=parallelogramPerimeter;whiteSpace=wrap;html=1;fixedSize=1;strokeWidth=2;" vertex="1" parent="1">
          <mxGeometry x="720" y="1932.5" width="120" height="60" as="geometry" />
        </mxCell>
        <mxCell id="Fj_LGXwjLdzTl21RgVkY-43" value="" style="edgeStyle=orthogonalEdgeStyle;rounded=0;orthogonalLoop=1;jettySize=auto;html=1;" edge="1" parent="1" source="Fj_LGXwjLdzTl21RgVkY-40" target="Fj_LGXwjLdzTl21RgVkY-42">
          <mxGeometry relative="1" as="geometry" />
        </mxCell>
        <mxCell id="Fj_LGXwjLdzTl21RgVkY-45" value="" style="edgeStyle=orthogonalEdgeStyle;rounded=0;orthogonalLoop=1;jettySize=auto;html=1;" edge="1" parent="1" source="Fj_LGXwjLdzTl21RgVkY-40" target="Fj_LGXwjLdzTl21RgVkY-44">
          <mxGeometry relative="1" as="geometry" />
        </mxCell>
        <mxCell id="Fj_LGXwjLdzTl21RgVkY-40" value="i == 5 &amp;amp;&amp;amp; score &amp;gt;= 55 &amp;amp;&amp;amp; score &amp;lt; 60" style="rhombus;whiteSpace=wrap;html=1;strokeWidth=2;" vertex="1" parent="1">
          <mxGeometry x="265" y="2110" width="290" height="145" as="geometry" />
        </mxCell>
        <mxCell id="Fj_LGXwjLdzTl21RgVkY-78" style="edgeStyle=orthogonalEdgeStyle;rounded=0;orthogonalLoop=1;jettySize=auto;html=1;exitX=1;exitY=0.5;exitDx=0;exitDy=0;" edge="1" parent="1" source="Fj_LGXwjLdzTl21RgVkY-42" target="Fj_LGXwjLdzTl21RgVkY-77">
          <mxGeometry relative="1" as="geometry" />
        </mxCell>
        <mxCell id="Fj_LGXwjLdzTl21RgVkY-42" value="แสดง D+ !" style="shape=parallelogram;perimeter=parallelogramPerimeter;whiteSpace=wrap;html=1;fixedSize=1;strokeWidth=2;" vertex="1" parent="1">
          <mxGeometry x="720" y="2152.5" width="120" height="60" as="geometry" />
        </mxCell>
        <mxCell id="Fj_LGXwjLdzTl21RgVkY-47" value="" style="edgeStyle=orthogonalEdgeStyle;rounded=0;orthogonalLoop=1;jettySize=auto;html=1;" edge="1" parent="1" source="Fj_LGXwjLdzTl21RgVkY-44" target="Fj_LGXwjLdzTl21RgVkY-46">
          <mxGeometry relative="1" as="geometry" />
        </mxCell>
        <mxCell id="Fj_LGXwjLdzTl21RgVkY-49" value="" style="edgeStyle=orthogonalEdgeStyle;rounded=0;orthogonalLoop=1;jettySize=auto;html=1;" edge="1" parent="1" source="Fj_LGXwjLdzTl21RgVkY-44" target="Fj_LGXwjLdzTl21RgVkY-48">
          <mxGeometry relative="1" as="geometry" />
        </mxCell>
        <mxCell id="Fj_LGXwjLdzTl21RgVkY-44" value="i == 6 &amp;amp;&amp;amp; score &amp;gt;= 50 &amp;amp;&amp;amp; score &amp;lt; 55" style="rhombus;whiteSpace=wrap;html=1;strokeWidth=2;" vertex="1" parent="1">
          <mxGeometry x="265" y="2330" width="290" height="145" as="geometry" />
        </mxCell>
        <mxCell id="Fj_LGXwjLdzTl21RgVkY-80" style="edgeStyle=orthogonalEdgeStyle;rounded=0;orthogonalLoop=1;jettySize=auto;html=1;exitX=1;exitY=0.5;exitDx=0;exitDy=0;" edge="1" parent="1" source="Fj_LGXwjLdzTl21RgVkY-46" target="Fj_LGXwjLdzTl21RgVkY-79">
          <mxGeometry relative="1" as="geometry" />
        </mxCell>
        <mxCell id="Fj_LGXwjLdzTl21RgVkY-46" value="แสดง D !" style="shape=parallelogram;perimeter=parallelogramPerimeter;whiteSpace=wrap;html=1;fixedSize=1;strokeWidth=2;" vertex="1" parent="1">
          <mxGeometry x="720" y="2372.5" width="120" height="60" as="geometry" />
        </mxCell>
        <mxCell id="Fj_LGXwjLdzTl21RgVkY-51" value="" style="edgeStyle=orthogonalEdgeStyle;rounded=0;orthogonalLoop=1;jettySize=auto;html=1;" edge="1" parent="1" source="Fj_LGXwjLdzTl21RgVkY-48" target="Fj_LGXwjLdzTl21RgVkY-50">
          <mxGeometry relative="1" as="geometry" />
        </mxCell>
        <mxCell id="Fj_LGXwjLdzTl21RgVkY-53" value="" style="edgeStyle=orthogonalEdgeStyle;rounded=0;orthogonalLoop=1;jettySize=auto;html=1;" edge="1" parent="1" source="Fj_LGXwjLdzTl21RgVkY-48" target="Fj_LGXwjLdzTl21RgVkY-52">
          <mxGeometry relative="1" as="geometry" />
        </mxCell>
        <mxCell id="Fj_LGXwjLdzTl21RgVkY-48" value="i == 7 &amp;amp;&amp;amp;&amp;nbsp; score &amp;lt; 50" style="rhombus;whiteSpace=wrap;html=1;strokeWidth=2;" vertex="1" parent="1">
          <mxGeometry x="265" y="2555" width="290" height="145" as="geometry" />
        </mxCell>
        <mxCell id="Fj_LGXwjLdzTl21RgVkY-50" value="แสดง F!&amp;nbsp;" style="shape=parallelogram;perimeter=parallelogramPerimeter;whiteSpace=wrap;html=1;fixedSize=1;strokeWidth=2;" vertex="1" parent="1">
          <mxGeometry x="720" y="2597.5" width="120" height="60" as="geometry" />
        </mxCell>
        <mxCell id="Fj_LGXwjLdzTl21RgVkY-83" style="edgeStyle=orthogonalEdgeStyle;rounded=0;orthogonalLoop=1;jettySize=auto;html=1;exitX=0.5;exitY=1;exitDx=0;exitDy=0;entryX=0.15;entryY=0.3;entryDx=0;entryDy=0;entryPerimeter=0;" edge="1" parent="1" source="Fj_LGXwjLdzTl21RgVkY-52" target="Fj_LGXwjLdzTl21RgVkY-84">
          <mxGeometry relative="1" as="geometry">
            <mxPoint x="110" y="730" as="targetPoint" />
            <Array as="points">
              <mxPoint x="410" y="2950" />
              <mxPoint x="110" y="2950" />
              <mxPoint x="110" y="750" />
            </Array>
          </mxGeometry>
        </mxCell>
        <mxCell id="Fj_LGXwjLdzTl21RgVkY-52" value="i ++" style="whiteSpace=wrap;html=1;strokeWidth=2;" vertex="1" parent="1">
          <mxGeometry x="350" y="2822.5" width="120" height="60" as="geometry" />
        </mxCell>
        <mxCell id="Fj_LGXwjLdzTl21RgVkY-54" value="F" style="text;html=1;align=center;verticalAlign=middle;resizable=0;points=[];autosize=1;strokeColor=none;fillColor=none;" vertex="1" parent="1">
          <mxGeometry x="355" y="1568" width="30" height="30" as="geometry" />
        </mxCell>
        <mxCell id="Fj_LGXwjLdzTl21RgVkY-55" value="F" style="text;html=1;align=center;verticalAlign=middle;resizable=0;points=[];autosize=1;strokeColor=none;fillColor=none;" vertex="1" parent="1">
          <mxGeometry x="365" y="1798" width="30" height="30" as="geometry" />
        </mxCell>
        <mxCell id="Fj_LGXwjLdzTl21RgVkY-56" value="F" style="text;html=1;align=center;verticalAlign=middle;resizable=0;points=[];autosize=1;strokeColor=none;fillColor=none;" vertex="1" parent="1">
          <mxGeometry x="365" y="2038" width="30" height="30" as="geometry" />
        </mxCell>
        <mxCell id="Fj_LGXwjLdzTl21RgVkY-57" value="F" style="text;html=1;align=center;verticalAlign=middle;resizable=0;points=[];autosize=1;strokeColor=none;fillColor=none;" vertex="1" parent="1">
          <mxGeometry x="355" y="2258" width="30" height="30" as="geometry" />
        </mxCell>
        <mxCell id="Fj_LGXwjLdzTl21RgVkY-58" value="F" style="text;html=1;align=center;verticalAlign=middle;resizable=0;points=[];autosize=1;strokeColor=none;fillColor=none;" vertex="1" parent="1">
          <mxGeometry x="345" y="2468" width="30" height="30" as="geometry" />
        </mxCell>
        <mxCell id="Fj_LGXwjLdzTl21RgVkY-59" value="F" style="text;html=1;align=center;verticalAlign=middle;resizable=0;points=[];autosize=1;strokeColor=none;fillColor=none;" vertex="1" parent="1">
          <mxGeometry x="345" y="2688" width="30" height="30" as="geometry" />
        </mxCell>
        <mxCell id="Fj_LGXwjLdzTl21RgVkY-60" value="T" style="text;html=1;align=center;verticalAlign=middle;resizable=0;points=[];autosize=1;strokeColor=none;fillColor=none;" vertex="1" parent="1">
          <mxGeometry x="545" y="2578" width="30" height="30" as="geometry" />
        </mxCell>
        <mxCell id="Fj_LGXwjLdzTl21RgVkY-61" value="T" style="text;html=1;align=center;verticalAlign=middle;resizable=0;points=[];autosize=1;strokeColor=none;fillColor=none;" vertex="1" parent="1">
          <mxGeometry x="545" y="2338" width="30" height="30" as="geometry" />
        </mxCell>
        <mxCell id="Fj_LGXwjLdzTl21RgVkY-63" value="T" style="text;html=1;align=center;verticalAlign=middle;resizable=0;points=[];autosize=1;strokeColor=none;fillColor=none;" vertex="1" parent="1">
          <mxGeometry x="555" y="2108" width="30" height="30" as="geometry" />
        </mxCell>
        <mxCell id="Fj_LGXwjLdzTl21RgVkY-64" value="T" style="text;html=1;align=center;verticalAlign=middle;resizable=0;points=[];autosize=1;strokeColor=none;fillColor=none;" vertex="1" parent="1">
          <mxGeometry x="555" y="1878" width="30" height="30" as="geometry" />
        </mxCell>
        <mxCell id="Fj_LGXwjLdzTl21RgVkY-65" value="T" style="text;html=1;align=center;verticalAlign=middle;resizable=0;points=[];autosize=1;strokeColor=none;fillColor=none;" vertex="1" parent="1">
          <mxGeometry x="555" y="1668" width="30" height="30" as="geometry" />
        </mxCell>
        <mxCell id="Fj_LGXwjLdzTl21RgVkY-66" value="T" style="text;html=1;align=center;verticalAlign=middle;resizable=0;points=[];autosize=1;strokeColor=none;fillColor=none;" vertex="1" parent="1">
          <mxGeometry x="545" y="1438" width="30" height="30" as="geometry" />
        </mxCell>
        <mxCell id="Fj_LGXwjLdzTl21RgVkY-67" value="end" style="strokeWidth=2;html=1;shape=mxgraph.flowchart.start_1;whiteSpace=wrap;" vertex="1" parent="1">
          <mxGeometry x="360" y="3110" width="100" height="60" as="geometry" />
        </mxCell>
        <mxCell id="Fj_LGXwjLdzTl21RgVkY-68" style="edgeStyle=orthogonalEdgeStyle;rounded=0;orthogonalLoop=1;jettySize=auto;html=1;exitX=1;exitY=0.5;exitDx=0;exitDy=0;entryX=0.5;entryY=0;entryDx=0;entryDy=0;entryPerimeter=0;" edge="1" parent="1" source="Fj_LGXwjLdzTl21RgVkY-19" target="Fj_LGXwjLdzTl21RgVkY-67">
          <mxGeometry relative="1" as="geometry">
            <Array as="points">
              <mxPoint x="1000" y="1015" />
              <mxPoint x="1000" y="3040" />
            </Array>
          </mxGeometry>
        </mxCell>
        <mxCell id="Fj_LGXwjLdzTl21RgVkY-69" value="" style="shape=waypoint;sketch=0;fillStyle=solid;size=6;pointerEvents=1;points=[];fillColor=none;resizable=0;rotatable=0;perimeter=centerPerimeter;snapToPoint=1;" vertex="1" parent="1">
          <mxGeometry x="990" y="1248" width="20" height="20" as="geometry" />
        </mxCell>
        <mxCell id="Fj_LGXwjLdzTl21RgVkY-70" style="edgeStyle=orthogonalEdgeStyle;rounded=0;orthogonalLoop=1;jettySize=auto;html=1;exitX=1;exitY=0.5;exitDx=0;exitDy=0;entryX=0;entryY=0.6;entryDx=0;entryDy=0;entryPerimeter=0;" edge="1" parent="1" source="Fj_LGXwjLdzTl21RgVkY-24" target="Fj_LGXwjLdzTl21RgVkY-69">
          <mxGeometry relative="1" as="geometry" />
        </mxCell>
        <mxCell id="Fj_LGXwjLdzTl21RgVkY-71" value="" style="shape=waypoint;sketch=0;fillStyle=solid;size=6;pointerEvents=1;points=[];fillColor=none;resizable=0;rotatable=0;perimeter=centerPerimeter;snapToPoint=1;" vertex="1" parent="1">
          <mxGeometry x="990" y="1493" width="20" height="20" as="geometry" />
        </mxCell>
        <mxCell id="Fj_LGXwjLdzTl21RgVkY-72" style="edgeStyle=orthogonalEdgeStyle;rounded=0;orthogonalLoop=1;jettySize=auto;html=1;exitX=1;exitY=0.5;exitDx=0;exitDy=0;entryX=-0.2;entryY=0.45;entryDx=0;entryDy=0;entryPerimeter=0;" edge="1" parent="1" source="Fj_LGXwjLdzTl21RgVkY-30" target="Fj_LGXwjLdzTl21RgVkY-71">
          <mxGeometry relative="1" as="geometry" />
        </mxCell>
        <mxCell id="Fj_LGXwjLdzTl21RgVkY-73" value="" style="shape=waypoint;sketch=0;fillStyle=solid;size=6;pointerEvents=1;points=[];fillColor=none;resizable=0;rotatable=0;perimeter=centerPerimeter;snapToPoint=1;" vertex="1" parent="1">
          <mxGeometry x="990" y="1723" width="20" height="20" as="geometry" />
        </mxCell>
        <mxCell id="Fj_LGXwjLdzTl21RgVkY-74" style="edgeStyle=orthogonalEdgeStyle;rounded=0;orthogonalLoop=1;jettySize=auto;html=1;exitX=1;exitY=0.5;exitDx=0;exitDy=0;entryX=0.15;entryY=0.6;entryDx=0;entryDy=0;entryPerimeter=0;" edge="1" parent="1" source="Fj_LGXwjLdzTl21RgVkY-34" target="Fj_LGXwjLdzTl21RgVkY-73">
          <mxGeometry relative="1" as="geometry" />
        </mxCell>
        <mxCell id="Fj_LGXwjLdzTl21RgVkY-75" value="" style="shape=waypoint;sketch=0;fillStyle=solid;size=6;pointerEvents=1;points=[];fillColor=none;resizable=0;rotatable=0;perimeter=centerPerimeter;snapToPoint=1;" vertex="1" parent="1">
          <mxGeometry x="990" y="1953" width="20" height="20" as="geometry" />
        </mxCell>
        <mxCell id="Fj_LGXwjLdzTl21RgVkY-76" style="edgeStyle=orthogonalEdgeStyle;rounded=0;orthogonalLoop=1;jettySize=auto;html=1;exitX=1;exitY=0.5;exitDx=0;exitDy=0;entryX=0.5;entryY=0.25;entryDx=0;entryDy=0;entryPerimeter=0;" edge="1" parent="1" source="Fj_LGXwjLdzTl21RgVkY-38" target="Fj_LGXwjLdzTl21RgVkY-75">
          <mxGeometry relative="1" as="geometry" />
        </mxCell>
        <mxCell id="Fj_LGXwjLdzTl21RgVkY-77" value="" style="shape=waypoint;sketch=0;fillStyle=solid;size=6;pointerEvents=1;points=[];fillColor=none;resizable=0;rotatable=0;perimeter=centerPerimeter;snapToPoint=1;" vertex="1" parent="1">
          <mxGeometry x="990" y="2173" width="20" height="20" as="geometry" />
        </mxCell>
        <mxCell id="Fj_LGXwjLdzTl21RgVkY-79" value="" style="shape=waypoint;sketch=0;fillStyle=solid;size=6;pointerEvents=1;points=[];fillColor=none;resizable=0;rotatable=0;perimeter=centerPerimeter;snapToPoint=1;" vertex="1" parent="1">
          <mxGeometry x="990" y="2393" width="20" height="20" as="geometry" />
        </mxCell>
        <mxCell id="Fj_LGXwjLdzTl21RgVkY-81" value="" style="shape=waypoint;sketch=0;fillStyle=solid;size=6;pointerEvents=1;points=[];fillColor=none;resizable=0;rotatable=0;perimeter=centerPerimeter;snapToPoint=1;" vertex="1" parent="1">
          <mxGeometry x="990" y="2617.5" width="20" height="20" as="geometry" />
        </mxCell>
        <mxCell id="Fj_LGXwjLdzTl21RgVkY-82" style="edgeStyle=orthogonalEdgeStyle;rounded=0;orthogonalLoop=1;jettySize=auto;html=1;exitX=1;exitY=0.5;exitDx=0;exitDy=0;entryX=-0.2;entryY=0.425;entryDx=0;entryDy=0;entryPerimeter=0;" edge="1" parent="1" source="Fj_LGXwjLdzTl21RgVkY-50" target="Fj_LGXwjLdzTl21RgVkY-81">
          <mxGeometry relative="1" as="geometry" />
        </mxCell>
        <mxCell id="Fj_LGXwjLdzTl21RgVkY-84" value="" style="shape=waypoint;sketch=0;fillStyle=solid;size=6;pointerEvents=1;points=[];fillColor=none;resizable=0;rotatable=0;perimeter=centerPerimeter;snapToPoint=1;" vertex="1" parent="1">
          <mxGeometry x="400" y="740" width="20" height="20" as="geometry" />
        </mxCell>
      </root>
    </mxGraphModel>
  </diagram>
</mxfile>
